<?xml version="1.0" standalone="no"?><!DOCTYPE svg PUBLIC "-//W3C//DTD SVG 1.1//EN" "http://www.w3.org/Graphics/SVG/1.1/DTD/svg11.dtd"><svg t="1576141598862" class="icon" viewBox="0 0 1024 1024" version="1.1" xmlns="http://www.w3.org/2000/svg" p-id="2421" width="128" height="128" xmlns:xlink="http://www.w3.org/1999/xlink"><defs><style type="text/css"></style></defs><path d="M62 62m100.0000002 0l699.9999996 0q100.0000002 0 100.0000002 100.0000002l0 699.9999996q0 100.0000002-100.0000002 100.0000002l-699.9999996 0q-100.0000002 0-100.0000002-100.0000002l0-699.9999996q0-100.0000002 100.0000002-100.0000002Z" fill="#7AC944" p-id="2422"></path><path d="M308.4250001 411.5250002c18.74999971 0 33.93749971 15.2875002 33.9374997 34.12499941v136.55000039a34.0374999 34.0374999 0 0 1-33.9374997 34.12500029A34.0374999 34.0374999 0 0 1 274.5000002 582.2V445.66250029a34.0374999 34.0374999 0 0 1 33.9249999-34.13750009z m407.1499998-1e-8c18.7374999 0 33.9249999 15.2875002 33.92499991 34.12499942v136.55000039a34.0374999 34.0374999 0 0 1-33.92499991 34.12500029 34.0374999 34.0374999 0 0 1-33.9374997-34.12500029V445.66250029a34.0374999 34.0374999 0 0 1 33.9374997-34.13750009z m-356.2499997 220.84999981l0.33749999-220.84999981H665v221.52499981c0 28.4749998-22.9375002 51.54999961-51.22500029 51.54999961h-17.29999951v76.80000059A25.52500019 25.52500019 0 0 1 571.03750039 787.0000001a25.52500019 25.52500019 0 0 1-25.45000049-25.5999999v-76.80000059H477.7499999v76.80000059A25.52500019 25.52500019 0 0 1 452.28749961 787.0000001a25.52500019 25.52500019 0 0 1-25.44999961-25.5999999v-76.80000059h-16.62500039a51.0874998 51.0874998 0 0 1-36.24999961-15.46249922 51.71249971 51.71249971 0 0 1-14.6374998-36.76250039z m220.53749941-344.7500001a166.7374998 166.7374998 0 0 1 78.71250058 61.43749981c4.07499961 6.4125 6.19999981 13.87500029 6.09999961 21.50000068v22.52499961H359.3250002v-22.52499961a39.0875001 39.0875001 0 0 1 6.09999961-21.50000068 167.4124998 167.4124998 0 0 1 81.43750019-63.8375001l-37.66250039-31.0624998a8.63750039 8.63750039 0 0 1 2.4125001-14.71249952 8.51249971 8.51249971 0 0 1 8.4375 1.4000001l46.48750049 40.28749981c31.25000039-8.31250019 64.10000039-8.31250019 95.33750009 0l47.16249961-40.28749981a8.46249961 8.46249961 0 0 1 15.5625003 4.21249922 8.5375002 8.5375002 0 0 1-5.37500039 8.4250002l-39.375 34.12500029zM444.12499971 359.97499971c9.37500029 0 16.97500019-7.65 16.97500019-17.07499952 0-9.42500039-7.5999999-17.06249971-16.97500019-17.06250058-9.37500029 0-16.96250039 7.6375002-16.96249952 17.06250058s7.5999999 17.07500039 16.96249952 17.07499952z m135.72500009 0c9.37500029 0 16.96250039-7.65 16.96250039-17.07499952 0-9.42500039-7.5999999-17.06249971-16.96250039-17.06250058-9.37500029 0-16.97500019 7.6375002-16.97500019 17.06250058s7.5999999 17.07500039 16.97500019 17.07499952z" fill="#FFFFFF" p-id="2423"></path></svg>