<?xml version="1.0" standalone="no"?><!DOCTYPE svg PUBLIC "-//W3C//DTD SVG 1.1//EN" "http://www.w3.org/Graphics/SVG/1.1/DTD/svg11.dtd"><svg t="1576138226182" class="icon" viewBox="0 0 1024 1024" version="1.1" xmlns="http://www.w3.org/2000/svg" p-id="2350" width="128" height="128" xmlns:xlink="http://www.w3.org/1999/xlink"><defs><style type="text/css"></style></defs><path d="M405.33333367 149.33333367H149.33333367c-47.36 0-85.333333 37.973333-85.333334 85.333333v512c0 46.805333 38.528 85.333333 85.333334 85.333333h682.666666c46.805333 0 85.333333-38.528 85.333334-85.333333V319.99999967a85.333333 85.333333 0 0 0-85.333334-85.333333h-341.333333l-85.333333-85.333333z" fill="#EF5350" p-id="2351"></path><path d="M829.69599967 540.11733367V483.41333367h-113.408v155.904a70.954667 70.954667 0 0 0-42.496-14.165334 70.869333 70.869333 0 0 0-70.869333 70.869334 70.869333 70.869333 0 0 0 70.826667 70.869333 70.869333 70.869333 0 0 0 70.912-70.826667v-155.946666h85.034666m-113.408-198.4a283.477333 283.477333 0 0 1 283.477334 283.434666 283.477333 283.477333 0 0 1-283.477334 283.477334 283.477333 283.477333 0 0 1-283.477333-283.477334 283.477333 283.477333 0 0 1 283.477333-283.477333z" fill="#FFCDD2" p-id="2352"></path></svg>