<?xml version="1.0" standalone="no"?><!DOCTYPE svg PUBLIC "-//W3C//DTD SVG 1.1//EN" "http://www.w3.org/Graphics/SVG/1.1/DTD/svg11.dtd"><svg t="1576141159899" class="icon" viewBox="0 0 1024 1024" version="1.1" xmlns="http://www.w3.org/2000/svg" p-id="2360" width="128" height="128" xmlns:xlink="http://www.w3.org/1999/xlink"><defs><style type="text/css"></style></defs><path d="M905.75 62H596.375v302.34375001h365.625V118.25c0-30.9375-25.3125-56.25-56.25-56.25zM427.625 62H118.25C87.3125 62 62 87.3125 62 118.25v246.09375001h365.625V62z" fill="#55C7F7" p-id="2361"></path><path d="M596.375 962H427.625V659.65625001H62v246.09374999c0 30.9375 25.3125 56.25 56.25 56.25h787.5c30.9375 0 56.25-25.3125 56.25-56.25V659.65625001H596.375v302.34374999z" fill="#7ECF3B" p-id="2362"></path><path d="M427.625 617.46875001h-56.25V406.53124999h56.25v-42.18749998H62v295.31249998h365.625zM596.375 406.53124999h56.25v210.93750002h-56.25v42.18749998h365.625V364.34374999H596.375z" fill="#F95F5D" p-id="2363"></path><path d="M427.625 660.359375V962h168.75V617.46875001H427.625zM427.625 406.53124999h168.75V62H427.625v302.34375001zM434.65624999 582.3125h161.71875001V441.6875H434.65624999z" fill="#FDAF42" p-id="2364"></path><path d="M371.375 406.53124999v210.93750002h281.25V406.53124999H371.375z m225 35.15625001v140.625H427.625V441.6875h168.75z" fill="#FFFFFF" p-id="2365"></path><path d="M427.625 441.6875h7.03125001v140.625h-7.03125001z" fill="#FDAF42" p-id="2366"></path></svg>