<?xml version="1.0" standalone="no"?><!DOCTYPE svg PUBLIC "-//W3C//DTD SVG 1.1//EN" "http://www.w3.org/Graphics/SVG/1.1/DTD/svg11.dtd"><svg t="1576141114225" class="icon" viewBox="0 0 1024 1024" version="1.1" xmlns="http://www.w3.org/2000/svg" p-id="2360" width="128" height="128" xmlns:xlink="http://www.w3.org/1999/xlink"><defs><style type="text/css"></style></defs><path d="M872.06187148 62h-719.95500351c-49.49690625 0-89.994375 40.49746875-89.994375 89.994375v719.95500352c0 49.49690625 40.49746875 89.994375 89.994375 89.994375h719.95500351c49.49690625 0 89.994375-40.49746875 89.994375-89.994375v-719.95500352c0-49.49690625-40.49746875-89.994375-89.994375-89.994375z m-642.33485419 561.90238066c0 47.24704688-32.62296094 69.74564062-66.93331729 69.74564151-16.31148047 0-32.06049609-5.06218359-44.43472266-13.49915625l15.18655079-37.68514454c7.87450781 5.62464844 16.87394531 8.43697266 24.74845312 8.43697266 12.37422656 0 22.49859375-7.87450781 22.49859463-25.31091797v-208.67445791h48.93444141v206.9870625z m-24.74845313-235.11030556a28.12324219 28.12324219 0 0 1-28.68570703-28.68570703c0-17.43641016 12.37422656-29.24817187 28.68570703-29.24817188 17.998875 0 29.81063672 11.81176172 29.81063672 29.24817188 0 16.31148047-11.81176172 28.68570703-29.81063672 28.68570703z m147.36578907 231.17305165c-30.37310156 0-61.87113281-9.56190234-82.68233204-28.12324218l16.87394532-34.31035547c18.56133984 15.74901563 46.12211719 25.31091797 68.05824609 25.31091797 16.87394531 0 29.81063672-6.18711328 29.81063672-19.12380469 0-37.12267969-105.18092578-16.87394531-104.61846094-88.30698047 0-41.62239844 35.43528516-60.74620313 75.93275391-60.74620313 26.43584766 0 53.43416016 7.87450781 73.6828954 21.37366407l-17.998875 35.43528515c-19.12380469-11.24929688-41.62239844-17.998875-59.05880946-17.998875-15.74901563 0-26.9983125 5.06218359-26.9983125 17.43641016 0 33.74789063 106.86832031 16.31148047 106.86832118 88.30698047 0 41.05993359-36.56021484 60.74620313-79.87000868 60.74620312z m209.23692274 0c-63.55852734 0-106.30585547-41.05993359-106.30585547-102.36860156 0-60.74620313 42.74732812-101.80613672 106.30585547-101.80613672 62.9960625 0 105.74339063 41.05993359 105.74339151 101.80613672 0 61.30866797-42.74732812 102.36860156-105.74339151 102.36860156z m344.22848614-1.68739453h-49.49690625v-111.36803906c0-28.12324219-16.87394531-45.55965234-44.43472354-45.55965234-33.18542578 0.56246484-52.87169531 24.74845313-52.87169531 57.9338789v98.9938125h-48.93444141v-201.36241406h48.93444141v37.68514453c14.06162109-26.43584766 39.37253906-38.81007422 71.9955-39.37253906 46.68458203 0 74.80782422 29.81063672 74.8078251 77.62014844v125.42966015z" fill="#00A0FF" p-id="2361"></path><path d="M561.58127598 457.41278692c-33.74789063 0-56.80894922 24.74845313-56.80894922 60.74620312s23.06105859 61.30866797 56.80894922 61.30866796c33.18542578 0 56.80894922-25.31091797 56.80894922-61.30866797s-23.62352344-60.74620313-56.80894922-60.74620312z" fill="#00A0FF" p-id="2362"></path></svg>