<?xml version="1.0" standalone="no"?><!DOCTYPE svg PUBLIC "-//W3C//DTD SVG 1.1//EN" "http://www.w3.org/Graphics/SVG/1.1/DTD/svg11.dtd"><svg t="1576133403936" class="icon" viewBox="0 0 1280 1024" version="1.1" xmlns="http://www.w3.org/2000/svg" p-id="3915" width="160" height="128" xmlns:xlink="http://www.w3.org/1999/xlink"><defs><style type="text/css"></style></defs><path d="M1180.8125 442.625c0-38.4375 6-61.125 6-102.375 0-64.125-23.625-84.75-75.9375-84.75h-38.4375v45.375h11.8125c26.625 0 32.4375 8.8125 32.4375 41.4375 0 30.5625-3 61.125-3 96.5625 0 45.375 14.8125 63 44.25 69.9375v3c-29.625 6.9375-44.25 24.5625-44.25 69.9375 0 35.4375 3 64.125 3 96.5625 0 33.5625-6.9375 42.375-32.4375 42.375v0.9375h-11.8125V768.875h38.4375c52.125 0 75.9375-20.625 75.9375-84.75 0-42.375-6-64.125-6-102.375 0-20.625 12.75-42.375 51.1875-44.25v-51.1875c-38.4375-1.3125-51.1875-23.0625-51.1875-43.6875z m-198 60c-29.625-11.8125-57.1875-18.75-57.1875-38.4375 0-14.8125 11.8125-23.625 33.5625-23.625s41.4375 8.8125 63 24.5625l39.375-52.125c-24.5625-18.75-58.125-38.4375-103.5-38.4375-66.9375 0-112.3125 38.4375-112.3125 92.625 0 48.1875 42.375 72.9375 77.8125 86.625 30.5625 11.8125 60.1875 21.75 60.1875 41.4375 0 14.8125-11.8125 24.5625-38.4375 24.5625-24.5625 0-49.3125-9.9375-75.9375-30.5625l-39.375 57.1875c29.625 24.5625 74.8125 41.4375 112.3125 41.4375 78.75 0 121.125-41.4375 121.125-95.625s-42.1875-76.875-80.625-89.625z m-672.9375 111.375c-6.9375 0-15.75-6-15.75-24.5625V255.3125H154.25c-53.25 0-76.875 20.625-76.875 84.75 0 42.375 6 66 6 102.375 0 20.625-12.75 42.375-51.1875 44.25v51.1875c38.4375 0.9375 51.1875 22.6875 51.1875 43.3125 0 36.375-6 58.125-6 100.5 0 64.125 23.625 84.75 75.9375 84.75h38.4375v-45.375h-11.8125c-24.5625 0-32.4375-9.9375-32.4375-42.375s3-60.1875 3-96.5625c0-45.375-14.8125-63-44.25-69.9375v-3c29.625-6.9375 44.25-24.5625 44.25-69.9375 0-35.4375-3-64.125-3-96.5625s6.9375-41.4375 32.4375-41.4375H206.375v282.75c0 60.1875 20.625 99.5625 80.8125 99.5625 18.75 0 33.5625-3 44.25-6.9375l-9.9375-64.125c-5.8125 1.5-8.625 1.5-11.625 1.5zM744.3125 502.625c-30.5625-11.8125-58.125-18.75-58.125-38.4375 0-14.8125 11.8125-23.625 33.5625-23.625 21.75 0 41.4375 8.8125 63 24.5625l39.375-52.125c-24.5625-18.75-58.125-38.4375-103.5-38.4375-66.9375 0-112.3125 38.4375-112.3125 92.625 0 48.1875 42.375 72.9375 77.8125 86.625 30.5625 11.8125 60.1875 21.75 60.1875 41.4375 0 14.8125-11.8125 24.5625-38.4375 24.5625-24.5625 0-49.3125-9.9375-75.9375-30.5625l-38.4375 57.1875c29.625 24.5625 74.8125 41.4375 112.3125 41.4375 78.75 0 121.125-41.4375 121.125-95.625 0.1875-54.1875-42.1875-76.875-80.625-89.625z m-290.625-129c-72 0-140.8125 60.1875-138.9375 154.6875 0 97.5 64.125 154.6875 148.6875 154.6875 35.4375 0 74.8125-12.75 105.375-33.5625l-29.625-52.125c-21.75 12.75-42.375 18.75-64.125 18.75-39.375 0-69.9375-18.75-77.8125-64.125H575.75c0.9375-6.9375 3-20.625 3-36.375 1.125-79.875-42.375-141.9375-125.0625-141.9375z m-56.25 124.125c6-39.375 29.625-58.125 57.1875-58.125 35.4375 0 49.3125 24.5625 49.3125 58.125h-106.5z" fill="#1296db" p-id="3916"></path></svg>