<?xml version="1.0" standalone="no"?><!DOCTYPE svg PUBLIC "-//W3C//DTD SVG 1.1//EN" "http://www.w3.org/Graphics/SVG/1.1/DTD/svg11.dtd"><svg t="1576134015941" class="icon" viewBox="0 0 1024 1024" version="1.1" xmlns="http://www.w3.org/2000/svg" p-id="15646" width="128" height="128" xmlns:xlink="http://www.w3.org/1999/xlink"><defs><style type="text/css"></style></defs><path d="M647.68 437.248v-20.48c0-53.76 52.736-86.528 52.736-86.528-27.648-38.912-88.576-40.96-88.576-40.96-28.16 0.512-55.808 7.68-80.384 20.48-20.992 7.68-31.232 0-31.232 0-19.456-12.8-42.496-19.968-66.56-20.48C313.344 289.28 309.76 424.96 309.76 424.96c2.048 74.752 37.376 145.92 97.792 197.12 29.184 25.088 75.776 0 75.776 0 19.456-13.312 44.544-16.384 66.56-8.192 58.368 31.744 83.456 8.192 83.456 8.192 61.44-39.424 80.896-111.104 80.896-111.104-69.632-30.208-66.56-73.728-66.56-73.728z m-35.328-258.56c-60.416 5.12-104.96 52.224-102.4 107.008 111.616-8.192 102.4-107.008 102.4-107.008z" fill="#00A0FF" p-id="15647"></path><path d="M891.904 33.28H132.096C58.88 33.28 0 91.136 0 162.816v512c0 71.68 58.88 129.024 132.096 129.024H409.6v51.2H206.848c-13.312 0-26.112 7.68-32.768 19.456L141.312 936.96c-13.312 24.576 4.096 53.76 32.768 53.76h682.496c27.648 0 45.568-29.696 32.768-53.76l-33.792-62.464c-6.656-11.264-18.432-19.456-32.768-19.456h-207.872v-51.2h277.504c73.216 0 132.096-58.88 132.096-130.56V162.816C1024 92.16 965.12 33.28 891.904 33.28z m66.56 641.536c0 35.84-30.208 65.536-66.56 65.536H132.096c-36.864 0-66.56-29.696-66.56-65.536V163.84c0-35.84 30.208-65.536 66.56-65.536V97.28h759.808c36.864 0 66.56 29.696 66.56 65.536v512z" fill="#00A0FF" p-id="15648"></path></svg>