<?xml version="1.0" standalone="no"?><!DOCTYPE svg PUBLIC "-//W3C//DTD SVG 1.1//EN" "http://www.w3.org/Graphics/SVG/1.1/DTD/svg11.dtd"><svg t="1576133047190" class="icon" viewBox="0 0 1024 1024" version="1.1" xmlns="http://www.w3.org/2000/svg" p-id="2014" width="128" height="128" xmlns:xlink="http://www.w3.org/1999/xlink"><defs><style type="text/css"></style></defs><path d="M62 512v450h900V62H62z m725.2875-35.859375a111.99375 111.99375 0 0 1 56.278125 32.428125c8.296875 8.859375 20.5875 24.975 21.571875 28.884375 0.309375 1.125-38.840625 27.365625-62.55 42.103125-0.871875 0.5625-4.303125-3.15-8.128125-8.859375-11.615625-16.875-23.7375-24.159375-42.3-25.425-27.309375-1.884375-44.859375 12.403125-44.690625 36.253125l-0.028125 1.40625c0 5.653125 1.434375 10.996875 3.9375 15.665625l-0.084375-0.16875c5.990625 12.403125 17.184375 19.884375 52.115625 34.9875 64.4625 27.759375 92.025 46.0125 109.153125 72 19.125 28.996875 23.428125 75.290625 10.434375 109.715625-14.259375 37.434375-49.696875 62.859375-99.5625 71.240625-15.4125 2.728125-51.975 2.334375-68.540625-0.675-36.140625-6.440625-70.425-24.3-91.575-47.728125-8.296875-9.1125-24.440625-32.990625-23.428125-34.678125 0.421875-0.590625 4.134375-2.896875 8.240625-5.2875 4.05-2.278125 19.153125-11.025 33.440625-19.321875l25.875-14.990625 5.428125 8.015625c7.565625 11.559375 24.103125 27.421875 34.115625 32.709375 28.715625 15.159375 68.146875 13.021875 87.553125-4.415625a33.046875 33.046875 0 0 0 11.728125-27.05625v0.084375c0-10.434375-1.321875-14.990625-6.75-22.865625-6.975-9.984375-21.2625-18.365625-61.846875-36-46.434375-19.996875-66.403125-32.4-84.7125-52.115625a118.546875 118.546875 0 0 1-24.496875-44.15625l-0.225-0.84375c-3.403125-12.7125-4.275-44.578125-1.575-57.403125 9.5625-44.8875 43.425-76.134375 92.278125-85.415625 15.8625-3.009375 52.734375-1.884375 68.2875 1.996875z m-211.275 37.575l0.309375 36.871875H459.125v332.859375h-82.884375V550.5875H259.15625v-36.140625c0-20.025 0.421875-36.759375 0.984375-37.125 0.45-0.590625 71.746875-0.9 158.146875-0.759375l157.303125 0.45z" fill="#007ACC" p-id="2015"></path></svg>