<?xml version="1.0" standalone="no"?><!DOCTYPE svg PUBLIC "-//W3C//DTD SVG 1.1//EN" "http://www.w3.org/Graphics/SVG/1.1/DTD/svg11.dtd"><svg t="1576133607108" class="icon" viewBox="0 0 1024 1024" version="1.1" xmlns="http://www.w3.org/2000/svg" p-id="2014" width="128" height="128" xmlns:xlink="http://www.w3.org/1999/xlink"><defs><style type="text/css"></style></defs><path d="M812 62H212C161 62 122 101 122 152v720c0 51 39 90 90 90h600c51 0 90-39 90-90V152c0-51-39-90-90-90z m-447 285h141c12 0 21 9 21 21 0 12-9 21-21 21h-141c-12 0-21-9-21-21 0-12 9-21 21-21z m291 330h-291c-12 0-21-9-21-21 0-12 9-21 21-21h291c12 0 21 9 21 21 0 9-9 21-21 21z m0-144h-291c-12 0-21-9-21-21s9-21 21-21h291c12 0 21 9 21 21s-9 21-21 21z" fill="#AE88EA" p-id="2015"></path></svg>