<?xml version="1.0" standalone="no"?><!DOCTYPE svg PUBLIC "-//W3C//DTD SVG 1.1//EN" "http://www.w3.org/Graphics/SVG/1.1/DTD/svg11.dtd"><svg t="1576138220246" class="icon" viewBox="0 0 1024 1024" version="1.1" xmlns="http://www.w3.org/2000/svg" p-id="2176" width="128" height="128" xmlns:xlink="http://www.w3.org/1999/xlink"><defs><style type="text/css"></style></defs><path d="M62 62m81.81818174 0l736.36363652 0q81.81818174 0 81.81818174 81.81818174l0 736.36363652q0 81.81818174-81.81818174 81.81818174l-736.36363652 0q-81.81818174 0-81.81818174-81.81818174l0-736.36363652q0-81.81818174 81.81818174-81.81818174Z" fill="#6BC8FF" p-id="2177"></path><path d="M268.18181826 361.86363652m40.90909043 0l268.36363652 0q40.90909131 0 40.90909132 40.90909043l0 218.04545479q0 40.90909131-40.90909132 40.90909131l-268.36363652 0q-40.90909131 0-40.90909043-40.90909131l0-218.04545479q0-40.90909131 40.90909043-40.90909043Z" fill="#FFFFFF" p-id="2178"></path><path d="M671.13636347 449.40909131l68.31818174-22.90909131a40.90909131 40.90909131 0 0 1 54 38.86363653v111.68181826a40.90909131 40.90909131 0 0 1-54 38.86363652L671.13636347 593.81818174a40.90909131 40.90909131 0 0 1-27.81818173-38.86363653v-67.09090869a40.90909131 40.90909131 0 0 1 27.81818173-38.45454521z" fill="#FFFFFF" p-id="2179"></path></svg>