<svg height="48" viewBox="0 0 1024 1024" width="48" xmlns="http://www.w3.org/2000/svg"><g fill="#00a971"><path d="m481.280154 0-146.282789 89.072195 146.282789 86.471247zm43.8833 175.543442 146.287909-87.479882-146.287909-88.06356zm0 731.424183 146.282789-87.88948-146.282789-87.653962zm-43.8833 0v-175.543442l-146.282789 88.181319zm409.597952-205.735931-146.282789-86.834766v175.543442zm-614.396928-86.834766-146.282789 87.684682 146.282789 87.85876zm468.114139-73.143954 146.282789-88.1506-146.282789-87.392843zm-468.114139 0v-175.538323l-146.282789 87.930441zm614.396928-336.704877-146.282789-87.520842v175.543442zm-614.396928-87.520842-146.282789 88.386118 146.282789 87.157324zm629.024694 307.198464v-175.543442l-146.282788 88.252998zm-789.94037 0 146.282789-88.06356c-53.027575-31.713121-96.839196-57.92739-146.282789-87.479882zm146.287909 146.477347-146.282789-87.96116v175.543443zm497.369673.17408 146.282788 87.403083v-175.538323zm-438.858606 43.519782v175.543442l146.287909-87.99188zm380.342418 175.543442v-175.543442l-146.282788 87.623242zm-380.342418-482.741906 146.282789-88.119879-146.282789-87.423563zm380.342418 541.252974-146.282788 88.764996 146.282788 86.778446zm0-555.880741v-160.915675l-146.282788 81.044075z"/><path d="m481.280154 0v175.543442l-146.282789-86.471247zm43.8833 175.543442v-175.543442l146.287909 88.06356zm0 731.424183v-175.543442l146.287909 87.653962zm-43.8833 0-146.282789-87.362123 146.282789-88.181319zm409.597952-205.735931-146.282789 88.708676v-175.543442zm-614.396928-86.834766v175.543442l-146.282789-87.85876zm468.114139-73.143954v-175.538323l146.282789 87.387723zm-468.114139 0-146.282789-87.607882 146.282789-87.930441zm614.396928-336.704877-146.282789 88.0226v-175.543442zm-614.396928-87.520842v175.543442l-146.282789-87.157324zm629.024694 307.198464-146.282788-87.285324 146.282788-88.258118zm-789.94037 0v-175.543442c49.443593 29.547372 93.255214 55.761641 146.282789 87.479882zm146.287909 146.477347-146.287909 87.577163v-175.538323zm497.369673.17408 146.282788-88.13524v175.538323zm-438.858606 43.519782 146.287909 87.551562-146.287909 87.99188zm380.342418 175.543442-146.282788-87.9202 146.282788-87.623242zm-380.342418-482.741906v-175.543442l146.287909 87.423563zm380.342418 541.252974v175.543442l-146.282788-86.778446zm0-555.880741-146.282788-79.8716 146.282788-81.044075z"/></g></svg>