<?xml version="1.0" standalone="no"?><!DOCTYPE svg PUBLIC "-//W3C//DTD SVG 1.1//EN" "http://www.w3.org/Graphics/SVG/1.1/DTD/svg11.dtd"><svg t="1575604944261" class="icon" viewBox="0 0 1525 1024" version="1.1" xmlns="http://www.w3.org/2000/svg" p-id="5436" xmlns:xlink="http://www.w3.org/1999/xlink" width="71.484375" height="48"><defs><style type="text/css"></style></defs><path d="M23.130055 63.55339a752.78032 752.78032 0 0 0 55.88866 100.280223 864.757241 864.757241 0 0 0 79.601419 103.074656c6.507037 11.736618 19.52111 16.92628 26.068067 29.980273 11.696698 10.419243 23.433316 22.115941 35.169935 33.85256a1091.944642 1091.944642 0 0 0 127.745507 92.495731c18.243655 10.459163 35.209855 19.561031 53.453511 28.662898 3.992047 5.229582 1.277455 10.459163 2.59483 15.648825 6.507037 37.804686 9.101867 76.886827 14.331449 114.651592 2.594831 22.155861 3.992047 45.629098 7.784492 67.864801 6.546957 37.804686 10.459163 76.886827 15.648825 114.691513 6.507037 42.994347 10.419243 85.948774 18.243655 128.943121 3.992047 20.878406 15.648825 37.804686 24.750692 57.365717 2.594831 3.992047 6.507037 6.507037 9.141788 11.696698 33.852559 42.994347 79.441737 61.238002 134.172703 61.238002h306.190012c78.164282 0 132.895248-37.764766 162.875521-110.739386 14.331449-35.169935 16.92628-72.974621 20.838486-109.461932l27.345523-222.796148c2.634751-11.696698-1.277455-13.014074-11.696698-13.014074-26.068068 0-49.541304 6.507037-72.974621 15.648825-18.243655 5.189661-29.980274 18.243655-42.994347 29.980274a22.634907 22.634907 0 0 0-9.101868 6.507037c-9.141788 14.331449-20.878406 26.068068-26.068067 41.676971a438.207009 438.207009 0 0 0-15.648825 44.311723c-10.419243 36.44739-20.838486 74.252076-31.257729 112.016841-3.992047 18.243655-14.331449 31.297649-26.068067 45.629099a43.633075 43.633075 0 0 1-31.257729 14.331449c-63.872753 3.992047-126.388211 2.594831-190.221044 1.277455a62.036412 62.036412 0 0 1-53.453511-32.535184c-9.101867-15.648825-13.014074-31.297649-16.926279-48.223929-5.189661-23.473237-15.608904-45.589178-18.243655-70.37979a11.976141 11.976141 0 0 1-1.277456-6.467116c-18.243655-67.864801-37.804686-134.212623-55.888659-201.957663-1.277455-3.992047-3.992047-7.984094-1.277455-10.419243 2.594831-3.992047 7.784492-1.317376 11.696698 0a709.466609 709.466609 0 0 0 75.569452 15.608904 866.034697 866.034697 0 0 0 217.606487 6.507037 464.594441 464.594441 0 0 0 83.393863-14.331449c22.155861-9.101867 45.589178-13.014074 69.022495-19.52111 29.980274-9.141788 58.643172-20.838486 88.623445-31.29765 13.014074-6.507037 27.345523-13.014074 40.359596-19.52111a895.815368 895.815368 0 0 0 96.447858-57.325796c5.189661-3.992047 10.419243-10.419243 15.608904-13.053994 14.331449-7.984094 26.068068-18.203735 39.082141-27.345523a55.888659 55.888659 0 0 0 22.155862-16.926279c6.507037-9.141788 15.648825-15.648825 23.473237-23.433317s16.92628-14.37137 23.433316-23.473237c6.507037-7.984094 15.648825-15.648825 23.473237-23.433316s7.984094-18.283576 18.243655-23.473237c7.984094-5.189661 11.696698-14.331449 18.243655-20.838486 2.594831-2.594831 5.189661-3.992047 6.507037-6.546957 1.277455-3.992047 3.992047-6.507037 5.189661-10.419243 15.648825-18.243655 27.385443-40.359596 41.716892-61.198082 11.696698-16.9662 18.243655-35.209855 29.940354-50.85868 1.317376-3.992047 0-7.984094 2.634751-11.696698 14.331449-19.561031 20.838486-42.994347 29.940353-65.150208 3.992047-7.984094 1.317376-10.419243-6.507037-10.419243-9.101867-1.317376-18.243655-2.594831-24.750692 5.229581-1.317376 2.594831-3.992047 2.594831-6.507037 2.594831a16.447234 16.447234 0 0 0-16.926279 9.101867c-9.141788 15.648825-28.702819 24.750692-32.575105 44.311723h-1.317375c-9.141788-3.992047-13.014074 3.992047-16.92628 9.101867a762.480995 762.480995 0 0 1-76.886827 69.062415 798.848544 798.848544 0 0 1-67.8648 48.223929c-29.980274 18.243655-57.325796 37.764766-89.900901 50.778839-1.317376 1.317376-2.594831 2.634751-2.594831 3.992047 0 3.992047-2.634751 2.634751-5.229581 2.634751a18.323496 18.323496 0 0 0-7.984094 2.594831c-35.169935 20.838486-74.252076 35.169935-112.016842 48.223929-53.453511 19.52111-110.779307 31.257729-166.787727 39.082141a544.395462 544.395462 0 0 1-79.481658 6.507037c-63.872753 0-126.388211 2.594831-190.221044-9.141788a1211.34677 1211.34677 0 0 1-132.895248-29.940354 9.540993 9.540993 0 0 1-7.984094-9.141787 142.995127 142.995127 0 0 0-9.141788-33.85256c-13.014074-42.994347-18.203735-88.583525-41.676972-128.983041-1.317376-1.317376-2.594831-1.317376-5.229581-1.317376a1.277455 1.277455 0 0 0-1.277455 1.317376v-2.634751c-9.141788-11.736618-23.473237-16.92628-37.764766-19.521111-16.9662-3.992047-22.155861 1.277455-19.561031 16.92628 5.229582 40.399517 9.101867 82.076488 15.608905 123.75346 1.317376 2.594831 2.634751 6.507037-1.277455 7.784492a8.223617 8.223617 0 0 1-7.984095 0c-18.243655-10.419243-35.169935-19.52111-53.41359-28.662898-24.750692-11.696698-46.906553-27.345523-69.062415-41.676972-10.419243-5.229582-18.243655-13.014074-27.345522-19.52111a661.801567 661.801567 0 0 1-87.30607-71.657246 474.654399 474.654399 0 0 1-71.856848-72.974621A53.213988 53.213988 0 0 0 16.024212 1.277455C0.415307 1.277455-3.496899 6.507037 3.010138 20.838486z" fill="#00A6E0" p-id="5437"></path></svg>