<?xml version="1.0" standalone="no"?><!DOCTYPE svg PUBLIC "-//W3C//DTD SVG 1.1//EN" "http://www.w3.org/Graphics/SVG/1.1/DTD/svg11.dtd"><svg t="1575604695097" class="icon" viewBox="0 0 1024 1024" version="1.1" xmlns="http://www.w3.org/2000/svg" p-id="4071" width="48" height="48" xmlns:xlink="http://www.w3.org/1999/xlink"><defs><style type="text/css"></style></defs><path d="M751.0016 175.3088c-14.336-12.9024-30.72-23.4496-48.3328-31.232-12.0832-6.8608-27.3408-3.584-35.5328 7.4752L563.4048 291.4304l-7.7824 10.3424c-11.6736 14.848-29.5936 23.2448-48.3328 22.7328h-19.6608c-55.0912 2.048-106.1888 29.2864-138.5472 73.9328-26.112 35.328-39.5264 78.4384-38.0928 122.368 0.1024 8.0896 5.2224 15.2576 12.8 18.1248 15.1552 7.168 25.7024 21.504 28.0576 38.0928 4.9152 25.2928-10.8544 49.9712-35.84 56.2176-26.3168 7.8848-54.1696-6.8608-62.3616-33.0752v-2.4576c-3.3792-14.5408 0.4096-29.696 10.3424-40.8576 5.12-6.5536 7.7824-14.7456 7.4752-23.1424-4.7104-56.7296 12.0832-113.0496 47.104-157.9008 42.5984-56.832 109.056-90.7264 180.0192-91.7504 13.2096-0.6144 25.4976-7.2704 33.0752-18.1248l96.768-127.2832c3.6864-4.8128 4.608-11.0592 2.6624-16.7936-2.048-5.632-6.7584-9.9328-12.5952-11.3664-166.1952-49.9712-346.0096 9.216-449.9456 148.2752C27.8528 441.9584 62.0544 704.4096 244.736 845.6192c17.8176 12.4928 35.5328 25.2928 53.6576 35.5328 12.1856 6.656 27.3408 3.2768 35.5328-7.7824L438.272 733.2864l7.7824-10.3424c11.6736-14.848 29.5936-23.2448 48.3328-22.7328H515.072c54.784-2.1504 105.5744-29.4912 137.6256-73.9328 26.2144-35.2256 39.6288-78.4384 38.0928-122.368-0.2048-7.9872-5.12-15.1552-12.4928-18.1248-15.36-6.9632-25.9072-21.4016-28.0576-38.0928-5.2224-25.2928 10.4448-50.176 35.5328-56.2176 12.6976-3.8912 26.3168-2.56 38.0928 3.584 11.6736 6.2464 20.48 16.7936 24.3712 29.4912v2.4576c2.9696 14.5408-1.1264 29.4912-10.9568 40.5504-5.3248 6.4512-8.192 14.7456-7.7824 23.1424 5.0176 56.4224-11.264 112.7424-45.568 157.9008-42.7008 56.832-109.2608 90.7264-180.3264 91.7504-13.2096 0.6144-25.4976 7.2704-33.0752 18.1248L373.76 885.76c-3.6864 4.8128-4.608 11.0592-2.6624 16.7936 2.048 5.632 6.7584 9.9328 12.5952 11.3664 167.3216 49.3568 347.648-10.3424 452.5056-149.8112 136.6016-186.6752 98.7136-448.4096-85.1968-588.8z" p-id="4072" fill="#00A0FF"></path></svg>